<?xml version="1.0" encoding="utf-8"?>
<!-- Generator: Adobe Illustrator 16.0.0, SVG Export Plug-In . SVG Version: 6.00 Build 0)  -->
<!DOCTYPE svg PUBLIC "-//W3C//DTD SVG 1.1//EN" "http://www.w3.org/Graphics/SVG/1.1/DTD/svg11.dtd">
<svg version="1.1" id="Layer_1" xmlns="http://www.w3.org/2000/svg" xmlns:xlink="http://www.w3.org/1999/xlink" x="0px" y="0px"
	 width="17.504px" height="14.046px" viewBox="0 -0.037 17.504 14.046" enable-background="new 0 -0.037 17.504 14.046"
	 xml:space="preserve">
<g>
	<defs>
		<path id="SVGID_1_" d="M1.719,0.26l-0.7,1.427h2.667v10.896H2.735v-8.95V2.509H1.524H0.616L0,3.633h1.524v8.95v1.427h1.211h0.951
			h1.21v-1.427V1.687V0.26h-1.21H1.719z M16.461,12.661h-1.881l0,0H8.873l0,0H7.654l4.714-6.851
			c0.021-0.021,0.047-0.055,0.071-0.093c0.022-0.036,0.045-0.071,0.063-0.105c0.117-0.191,0.17-0.362,0.203-0.577
			c0.004-0.021,0.006-0.041,0.008-0.061c0.004-0.048,0.007-0.097,0.008-0.146c0.001-0.023,0.001-0.048,0.001-0.073
			c0-0.024-0.002-0.048-0.002-0.072c-0.005-0.098-0.013-0.194-0.027-0.289c-0.026-0.191-0.075-0.375-0.142-0.545
			c-0.129-0.344-0.322-0.633-0.561-0.854c-0.236-0.225-0.519-0.394-0.824-0.511c-0.152-0.058-0.313-0.104-0.476-0.133
			c-0.081-0.015-0.165-0.026-0.247-0.034c-0.042-0.004-0.084-0.007-0.126-0.009s-0.084-0.002-0.126-0.002
			c-1.295,0.006-2.326,0.971-2.41,2.238C7.78,4.584,7.779,4.625,7.778,4.665c0,0.012,0,0.024,0.001,0.035h1.469
			c0-0.001,0-0.002,0-0.004c0.002-0.519,0.456-1.073,1.135-1.04c0.334,0.035,0.732,0.227,0.887,0.627
			c0.035,0.1,0.051,0.207,0.049,0.312c-0.001,0.052-0.006,0.104-0.014,0.154c-0.008,0.049-0.02,0.098-0.034,0.143
			c-0.007,0.022-0.015,0.045-0.022,0.067C11.243,4.981,11.23,5,11.221,5.021c-0.002,0.005-0.006,0.01-0.008,0.015
			c0-0.001,0.002-0.001,0.002-0.001c-0.002,0.004-0.004,0.008-0.006,0.011c-0.016,0.033-0.031,0.064-0.049,0.093
			c-0.043,0.076-0.248,0.402-0.291,0.478l-0.111,0.159c-0.084,0.126-0.17,0.25-0.258,0.375l-5.403,7.86h3.805l0,0h5.707l0,0h2.896
			L16.461,12.661z M5.537,4.699h1.455c-0.092-1.73,1.271-3.26,3.215-3.304c0.063-0.002,0.125-0.002,0.187,0
			c0.062,0.001,0.123,0.004,0.185,0.009c0.121,0.01,0.242,0.024,0.359,0.045c0.236,0.042,0.465,0.105,0.682,0.189
			c0.432,0.166,0.821,0.41,1.146,0.724c0.646,0.623,1.059,1.568,0.936,2.691c-0.008,0.072-0.018,0.143-0.031,0.212
			c-0.012,0.071-0.025,0.14-0.043,0.208c-0.035,0.138-0.078,0.273-0.127,0.402c-0.103,0.261-0.235,0.507-0.398,0.736
			c-0.018,0.025-0.037,0.051-0.057,0.075h-0.002l-0.021,0.032c-0.007,0.009-0.014,0.018-0.02,0.025h0.002l-3.367,4.83h5.924
			l-0.982-1.338h-2.257l2.284-3.418l0.01-0.019c0.01-0.012,0.018-0.023,0.025-0.034l0.016-0.021l0,0
			c0.023-0.031,0.047-0.064,0.066-0.098c0.025-0.052,0.052-0.104,0.076-0.159c0.131-0.291,0.23-0.599,0.297-0.92
			c0.031-0.161,0.057-0.325,0.07-0.494c0.008-0.083,0.013-0.168,0.016-0.253c0.002-0.085,0.002-0.171,0-0.257
			c-0.037-1.354-0.662-2.521-1.612-3.336c-0.476-0.407-1.03-0.727-1.632-0.937c-0.301-0.105-0.611-0.184-0.932-0.232
			c-0.158-0.025-0.32-0.042-0.482-0.05C10.442,0.004,10.361,0.001,10.279,0c-0.082,0-0.163,0.001-0.245,0.005
			c-2.529,0.105-4.426,2.017-4.5,4.321C5.53,4.398,5.529,4.472,5.531,4.545C5.531,4.596,5.534,4.648,5.537,4.699z"/>
	</defs>
	<clipPath id="SVGID_2_">
		<use xlink:href="#SVGID_1_"  overflow="visible"/>
	</clipPath>
	<g clip-path="url(#SVGID_2_)">
		<path fill="#1CA9C9" d="M7.569,10.149C5.357,6.226,5.357,2.499,5.357-1.229c0.494,0,0.987,0,1.481,0c0,0.115,0,0.228,0.001,0.342
			C7.73-0.818,8.479-0.768,9.12-0.732c0-0.828,0-1.655,0-2.483c-1.485,0-2.968,0-4.452,0C3.613-3.465,2.791-2.79,2.523-1.614
			C2.18-0.107,2.748,2.224,4.908,4.477v1.336v0.771v1.409v1.105v1.516c-3.682,4.455-0.396,3.293-4.031,5.506
			c-0.227,0.141-0.48,0.289-0.766,0.457c3.639-0.582,6.443-0.928,8.76-1.133C6.603,13.12,6.136,8.747,7.569,10.149z"/>
		<path fill="#52347D" d="M5.075,6.595C2.603,5.676,0.997,4.972,0,4.417v5.193h0.679c0.699-0.397,2.03-0.921,4.396-1.626V6.595z"/>
		<path fill="#414992" d="M4.908,5.813c-0.949-0.981-3.432-2.51-4.416-4.379c-0.9,0.89-3.862,1.161-0.691,2.941
			C0.804,4.938,2.42,5.653,4.908,6.584V5.813z"/>
		<path fill="#414992" d="M4.908,9.099V7.993C2.527,8.708,1.188,9.239,0.484,9.642c-2.141,1.223,1.617,1.248-0.208,1.613
			c0.825-0.061,0.976,0.221,1.003,0.564C2.234,10.485,3.853,9.669,4.908,9.099z"/>
		<path fill="#256CAA" d="M5.065,10.454v-1.56c-1.093,0.587-2.769,1.427-3.758,2.8c-0.787,1.092-1.138,2.522-0.417,4.426
			C4.655,13.843,1.252,15.039,5.065,10.454z"/>
		<path fill="#256CAA" d="M5.002,5.911V4.554C2.764,2.265,2.175-0.103,2.531-1.633C2.29-2.076,2.033-2.553,1.76-3.065
			c-2,1.637-2.063,3.172-1.333,4.527C1.446,3.362,4.019,4.914,5.002,5.911z"/>
		<path fill="#1CA9C9" d="M13.532,14.255c-0.268,0.021-0.512,0.068-0.717,0.146c0.178,0.254,0.357,0.516,0.547,0.783
			c0.375-0.012,0.732-0.018,1.088-0.021h0.012v-0.002C14.135,14.853,13.825,14.55,13.532,14.255z"/>
		<path fill="#1CA9C9" d="M6.996,0.325C6.951,0.193,6.902,0.062,6.848-0.072C6.85,0.06,6.854,0.191,6.857,0.325
			C6.904,0.325,6.951,0.325,6.996,0.325z"/>
		<path fill="#47C473" d="M12.815,14.401c-0.736,0.273-1.006,0.934-0.246,2.332c0.477-0.088,0.982-0.262,1.52-0.535
			c-0.252-0.348-0.492-0.684-0.727-1.014C13.172,14.917,12.993,14.655,12.815,14.401z"/>
		<path fill="#47C473" d="M6.739,5.025c0.024,0,0.048-0.002,0.073-0.002C6.477,3.746,6.304,2.678,6.219,2.009
			c-0.118-0.953-0.128-1.513-0.31-1.684c0.317,0,0.632,0,0.948,0C6.854,0.191,6.85,0.06,6.848-0.072
			C6.732-0.347,6.595-0.628,6.427-0.918C6.567-0.907,6.705-0.897,6.84-0.887C6.839-1.001,6.839-1.114,6.839-1.229
			c-0.494,0-0.987,0-1.481,0c0,3.728,0,7.455,2.212,11.378c-1.434-1.402-0.967,2.971,1.302,5.295
			c0.928,0.955,2.165,1.566,3.698,1.289C6.297,7.55,6.808,6.293,6.739,5.025z"/>
		<path fill="#FFD40D" d="M18.01,14.571c0,0.037,0.004,0.076,0.008,0.115c0.5,0.008,0.635-0.143,0.092-0.641
			c0.002,0.197,0.006,0.4,0.012,0.605C18.084,14.624,18.045,14.599,18.01,14.571z"/>
		<path fill="#FFD40D" d="M12.815,14.401c0.205-0.078,0.449-0.125,0.717-0.146c-3.867-3.902-4.855-6.678-4.526-8.688
			C8.662,5.715,8.301,5.896,7.914,6.122C7.336,3.791,7.613,2.127,6.996,0.325c-0.045,0-0.092,0-0.139,0c-0.316,0-0.631,0-0.948,0
			c0.182,0.171,0.191,0.731,0.31,1.684c0.085,0.669,0.258,1.737,0.594,3.015c-0.025,0-0.049,0.002-0.073,0.002
			c0.068,1.268-0.442,2.524,5.83,11.708v0.002v-0.002C11.809,15.335,12.079,14.675,12.815,14.401z"/>
		<path fill="#FAA629" d="M10.512,7.95c-0.467-0.788-0.695-1.542-0.748-2.23c-0.719-1.03-1.125-2.75-0.969-5.935
			C9.105-0.389,9.409-0.551,9.7-0.701C9.516-0.711,9.323-0.72,9.12-0.732C8.479-0.768,7.73-0.818,6.84-0.887
			c-0.135-0.01-0.272-0.021-0.413-0.032c0.168,0.291,0.306,0.572,0.421,0.847c0.055,0.134,0.104,0.265,0.148,0.396
			c0.617,1.803,0.34,3.466,0.918,5.797c0.387-0.225,0.748-0.406,1.092-0.554c-0.329,2.01,0.659,4.785,4.526,8.688
			c0.293,0.295,0.604,0.598,0.93,0.906v0.002c1.111,1.049,2.422,2.174,3.957,3.381c-0.17-1.416-0.301-2.699-0.4-3.857
			c-0.004-0.039-0.008-0.078-0.008-0.115C13.874,11.54,11.553,9.794,10.512,7.95z"/>
		<path fill="#F66F09" d="M18.555-2.096c-0.863-0.485-2.043-0.819-3.893-0.477c0.332,0.119,0.682,0.275,1.049,0.477
			C16.661-2.096,17.61-2.096,18.555-2.096z"/>
		<path fill="#F66F09" d="M10.659-1.178C10.35-1.032,10.03-0.874,9.7-0.701c-0.291,0.15-0.594,0.313-0.905,0.486
			C8.639,2.97,9.045,4.689,9.764,5.72c0.053,0.688,0.281,1.442,0.748,2.23c1.041,1.844,3.361,3.59,7.498,6.621
			c0.035,0.027,0.074,0.053,0.111,0.08c-0.006-0.205-0.01-0.408-0.012-0.605c-0.061-3.783,0.254-5.602,0.637-6.548
			C18.959,7,19.192,6.749,19.434,6.626c-1.322,0.132-2.813,0.569-4.854,2.014C10.639,6.891,9.333,1.565,10.659-1.178z"/>
		<path fill="#D4021C" d="M18.555-2.096c-0.945,0-1.895,0-2.844,0c-0.367-0.202-0.717-0.358-1.049-0.477
			c-2.002-0.715-3.336,0.012-4.004,1.395c-1.326,2.743-0.02,8.069,3.922,9.818c2.041-1.444,3.531-1.882,4.854-2.014
			c0.576-0.056,1.119-0.056,1.66-0.056c0-0.354,0-0.706,0-1.059c0-2.03,0-4.063,0-6.093c0-0.504,0-1.009,0-1.513
			C20.249-2.096,19.401-2.096,18.555-2.096z"/>
	</g>
	<rect x="5.294" y="3.74" clip-path="url(#SVGID_2_)" fill="#47C473" width="0.646" height="1.563"/>
</g>
</svg>
