<svg width="900" height="700" viewBox="0 0 900 700" fill="none" xmlns="http://www.w3.org/2000/svg">
<rect width="900" height="700" rx="36" fill="#FFF7ED"/>
<rect x="122" y="112" width="656" height="476" rx="34" fill="#FFFFFF"/>
<rect x="174" y="162" width="250" height="300" rx="26" fill="#FDE68A"/>
<path d="M220 388C240 308 320 238 410 222" stroke="#F97316" stroke-width="18" stroke-linecap="round"/>
<circle cx="256" cy="250" r="34" fill="#FB7185"/>
<circle cx="318" cy="220" r="28" fill="#60A5FA"/>
<circle cx="372" cy="286" r="30" fill="#34D399"/>
<circle cx="338" cy="360" r="36" fill="#A78BFA"/>
<rect x="470" y="190" width="258" height="34" rx="17" fill="#DBEAFE"/>
<rect x="470" y="248" width="202" height="24" rx="12" fill="#E2E8F0"/>
<rect x="470" y="292" width="230" height="24" rx="12" fill="#E2E8F0"/>
<rect x="470" y="336" width="176" height="24" rx="12" fill="#E2E8F0"/>
<rect x="470" y="394" width="220" height="104" rx="26" fill="#0EA5E9"/>
<path d="M518 464L552 430L590 456L632 420L682 464" stroke="#E0F2FE" stroke-width="16" stroke-linecap="round" stroke-linejoin="round"/>
</svg>
