<svg width="900" height="700" viewBox="0 0 900 700" fill="none" xmlns="http://www.w3.org/2000/svg">
<rect width="900" height="700" rx="36" fill="#EEF6FF"/>
<rect x="78" y="84" width="744" height="532" rx="32" fill="#fff"/>
<rect x="118" y="126" width="240" height="410" rx="28" fill="#F97316"/>
<circle cx="238" cy="230" r="78" fill="#FED7AA"/>
<path d="M170 355C203 307 272 307 306 355" stroke="#FFF7ED" stroke-width="20" stroke-linecap="round"/>
<rect x="390" y="150" width="250" height="82" rx="26" fill="#DBEAFE"/>
<rect x="418" y="182" width="112" height="18" rx="9" fill="#2563EB"/>
<rect x="550" y="182" width="62" height="18" rx="9" fill="#93C5FD"/>
<rect x="390" y="270" width="338" height="64" rx="20" fill="#BFDBFE"/>
<rect x="390" y="364" width="290" height="64" rx="20" fill="#C7F9CC"/>
<rect x="390" y="458" width="210" height="64" rx="20" fill="#FDE68A"/>
<circle cx="699" cy="508" r="58" fill="#2563EB"/>
<path d="M674 508H724" stroke="#DBEAFE" stroke-width="14" stroke-linecap="round"/>
<path d="M699 483V533" stroke="#DBEAFE" stroke-width="14" stroke-linecap="round"/>
</svg>
